<svg id="Layer_1" enable-background="new 0 0 100 100" viewBox="0 0 100 100" xmlns="http://www.w3.org/2000/svg"><path d="m44.4462471 59.7333565c2.0419998 11.4312782-6.7355499 22.0483742-21.4344597 22.0483742s-22.6600995-19.3946419-20.0063693-36.1377297c2.4599783-15.5261612 19.3184452-25.2528725 31.524725-27.4015427 1.1843414-.2070789 2.3123093.5851479 2.5193901 1.7694874.0331917.1898289.0410309.3832188.0233116.5751114l-.4353943 5.150713c-.0655785.9597664-.7672157 1.7560253-1.7110977 1.9418602-13.1597951 2.2313938-20.9903625 21.9547577-12.933389 19.5927429 8.3682785-2.4469147 20.4112835 1.0362358 22.4532833 12.4609833zm52.7610817 0c-2.0419998-11.4312744-14.0871887-14.9013672-22.4576416-12.4522743-8.0548019 2.3576584-.2176971-17.3657017 12.9333878-19.5927448.9442902-.1851406 1.6462631-.9817867 1.7110977-1.9418602l.4354019-5.150713c.1105423-1.197216-.7703781-2.2573624-1.9675903-2.3679085-.1918945-.0177174-.3852921-.0098782-.5751114.0233116-12.2041016 2.1464939-29.0625725 11.8753796-31.5247269 27.4015427-2.6537323 16.7387314 5.307457 36.1377258 20.0063705 36.1377258s23.4786454-10.6236267 21.4388123-22.0570793z"/></svg>